<?xml version="1.0" encoding="UTF-8"?>
<svg version="1.1" xmlns="http://www.w3.org/2000/svg" width="48" height="48">
<path d="M0 0 C2.9375 0.5 2.9375 0.5 4.8125 1.6875 C6.28531139 4.06036279 6.15973194 5.75913944 5.9375 8.5 C4.9475 8.83 3.9575 9.16 2.9375 9.5 C2.6075 10.49 2.2775 11.48 1.9375 12.5 C1.2775 12.5 0.6175 12.5 -0.0625 12.5 C-0.0625 13.16 -0.0625 13.82 -0.0625 14.5 C7.5275 14.83 15.1175 15.16 22.9375 15.5 C23.4325 16.985 23.4325 16.985 23.9375 18.5 C24.9275 18.83 25.9175 19.16 26.9375 19.5 C26.9375 29.07 26.9375 38.64 26.9375 48.5 C22.02526615 48.5919129 17.11602248 48.67151843 12.20361328 48.71972656 C10.53326298 48.73982393 8.86298287 48.76710683 7.19287109 48.80175781 C4.7898628 48.85036119 2.38778566 48.87298656 -0.015625 48.890625 C-0.76056213 48.91127014 -1.50549927 48.93191528 -2.27301025 48.95318604 C-5.70847719 48.9546679 -7.70386956 48.75378261 -10.54101562 46.74609375 C-12.22610606 44.2584763 -12.53782867 43.13650355 -12.453125 40.171875 C-12.44023437 39.37265625 -12.42734375 38.5734375 -12.4140625 37.75 C-12.38054688 36.925 -12.34703125 36.1 -12.3125 35.25 C-12.29445313 34.40953125 -12.27640625 33.5690625 -12.2578125 32.703125 C-12.21080798 30.63492605 -12.13906724 28.56731559 -12.0625 26.5 C-12.7225 26.83 -13.3825 27.16 -14.0625 27.5 C-16.3954866 27.54022391 -18.72956666 27.54320247 -21.0625 27.5 C-21.35595836 24.44803311 -21.49044914 21.54319391 -21.0625 18.5 C-18.8125 16.25 -18.8125 16.25 -16.0625 14.5 C-15.4025 13.675 -14.7425 12.85 -14.0625 12 C-11.95930365 9.37100457 -9.68350457 7.59680365 -7.0625 5.5 C-6.423125 4.5925 -5.78375 3.685 -5.125 2.75 C-3.0625 0.5 -3.0625 0.5 0 0 Z " fill="#E5E9E8" transform="translate(21.0625,-0.5)"/>
<path d="M0 0 C0.99 0.33 1.98 0.66 3 1 C3 10.57 3 20.14 3 30 C-1.91223385 30.0919129 -6.82147752 30.17151843 -11.73388672 30.21972656 C-13.40423702 30.23982393 -15.07451713 30.26710683 -16.74462891 30.30175781 C-19.1476372 30.35036119 -21.54971434 30.37298656 -23.953125 30.390625 C-24.69806213 30.41127014 -25.44299927 30.43191528 -26.21051025 30.45318604 C-29.50327521 30.45460635 -31.66876568 30.20173889 -34.50292969 28.47558594 C-36 26 -36 26 -36 18 C-24.12 18 -12.24 18 0 18 C0 12.06 0 6.12 0 0 Z " fill="#5C7B86" transform="translate(45,18)"/>
<path d="M0 0 C2.9375 0.5 2.9375 0.5 4.8125 1.6875 C6.28531139 4.06036279 6.15973194 5.75913944 5.9375 8.5 C4.9475 8.83 3.9575 9.16 2.9375 9.5 C2.6075 10.49 2.2775 11.48 1.9375 12.5 C1.2775 12.5 0.6175 12.5 -0.0625 12.5 C-0.3925 13.49 -0.7225 14.48 -1.0625 15.5 C-1.805 15.933125 -2.5475 16.36625 -3.3125 16.8125 C-7.25191928 19.22987092 -9.72606958 22.67759488 -12.4375 26.375 C-15.13205785 28.24046312 -17.90112746 27.67894562 -21.0625 27.5 C-21.35595836 24.44803311 -21.49044914 21.54319391 -21.0625 18.5 C-18.8125 16.25 -18.8125 16.25 -16.0625 14.5 C-15.4025 13.675 -14.7425 12.85 -14.0625 12 C-11.95930365 9.37100457 -9.68350457 7.59680365 -7.0625 5.5 C-6.423125 4.5925 -5.78375 3.685 -5.125 2.75 C-3.0625 0.5 -3.0625 0.5 0 0 Z " fill="#E64F3E" transform="translate(21.0625,-0.5)"/>
<path d="M0 0 C-0.33 0.66 -0.66 1.32 -1 2 C-3.3140622 2.73075648 -5.64828869 3.40138258 -8 4 C-8 5.32 -8 6.64 -8 8 C-11.63 8 -15.26 8 -19 8 C-19 6.68 -19 5.36 -19 4 C-19.763125 3.896875 -20.52625 3.79375 -21.3125 3.6875 C-24.22636046 2.94209384 -25.02950397 2.15541061 -27 0 C-16.29813115 -4.73758621 -10.83464706 -4.31843584 0 0 Z " fill="#476372" transform="translate(41,24)"/>
<path d="M0 0 C11.88 0 23.76 0 36 0 C36 1.98 36 3.96 36 6 C34 8 34 8 31.20263672 8.22705078 C30.04006348 8.21657715 28.87749023 8.20610352 27.6796875 8.1953125 C25.79443359 8.18564453 25.79443359 8.18564453 23.87109375 8.17578125 C22.55238281 8.15902344 21.23367187 8.14226563 19.875 8.125 C18.53516279 8.11496983 17.19531848 8.10584404 15.85546875 8.09765625 C12.57013427 8.07402075 9.28515535 8.04107234 6 8 C6 7.34 6 6.68 6 6 C7.17369141 6.01740234 7.17369141 6.01740234 8.37109375 6.03515625 C9.38300781 6.04417969 10.39492188 6.05320312 11.4375 6.0625 C12.95150391 6.07990234 12.95150391 6.07990234 14.49609375 6.09765625 C16.94021067 6.28612676 16.94021067 6.28612676 18 5 C20.35313555 4.92728259 22.70833668 4.91629132 25.0625 4.9375 C26.35285156 4.94652344 27.64320312 4.95554687 28.97265625 4.96484375 C29.97167969 4.97644531 30.97070312 4.98804688 32 5 C32 4.01 32 3.02 32 2 C31.02389771 2.05329468 31.02389771 2.05329468 30.02807617 2.10766602 C27.08149989 2.26521303 24.13454327 2.41395582 21.1875 2.5625 C20.16333984 2.61857422 19.13917969 2.67464844 18.08398438 2.73242188 C17.10107422 2.78076172 16.11816406 2.82910156 15.10546875 2.87890625 C14.19949951 2.9260376 13.29353027 2.97316895 12.36010742 3.02172852 C10 3 10 3 7 2 C6.67 2.99 6.34 3.98 6 5 C6 4.01 6 3.02 6 2 C5.34 2 4.68 2 4 2 C4.33 3.65 4.66 5.3 5 7 C3.35 7 1.7 7 0 7 C0 4.69 0 2.38 0 0 Z " fill="#425E6E" transform="translate(9,37)"/>
<path d="M0 0 C1.32 0.99 2.64 1.98 4 3 C3.67 3.99 3.34 4.98 3 6 C2.34 6 1.68 6 1 6 C0.67 6.99 0.34 7.98 0 9 C-0.7425 9.433125 -1.485 9.86625 -2.25 10.3125 C-6.14532369 12.70281226 -8.93492489 15.86984978 -11 20 C-12.32 19.34 -13.64 18.68 -15 18 C-14.41889329 14.57245533 -13.31446376 12.95461339 -10.83984375 10.546875 C-10.21142578 9.928125 -9.58300781 9.309375 -8.93554688 8.671875 C-8.27619141 8.03765625 -7.61683594 7.4034375 -6.9375 6.75 C-6.27427734 6.1003125 -5.61105469 5.450625 -4.92773438 4.78125 C-3.29170683 3.1805324 -1.64909088 1.58723807 0 0 Z " fill="#C5412C" transform="translate(20,6)"/>
<path d="M0 0 C9.24 0 18.48 0 28 0 C28 0.99 28 1.98 28 3 C27.00097656 3.06058594 26.00195312 3.12117188 24.97265625 3.18359375 C23.68230469 3.26738281 22.39195313 3.35117187 21.0625 3.4375 C19.77472656 3.51871094 18.48695312 3.59992187 17.16015625 3.68359375 C14.13976043 3.64919188 14.13976043 3.64919188 13 5 C5.70588235 5.23529412 5.70588235 5.23529412 2 4 C2 4.66 2 5.32 2 6 C1.34 5.67 0.68 5.34 0 5 C0 3.35 0 1.7 0 0 Z " fill="#869098" transform="translate(13,39)"/>
<path d="M0 0 C0.97066406 -0.01417969 1.94132812 -0.02835938 2.94140625 -0.04296875 C5.4375 0.1875 5.4375 0.1875 7.4375 2.1875 C6.7775 2.1875 6.1175 2.1875 5.4375 2.1875 C5.4375 3.5075 5.4375 4.8275 5.4375 6.1875 C1.8075 6.1875 -1.8225 6.1875 -5.5625 6.1875 C-5.5625 4.8675 -5.5625 3.5475 -5.5625 2.1875 C-6.5525 1.8575 -7.5425 1.5275 -8.5625 1.1875 C-5.47951949 0.15983983 -3.23119574 0.02151262 0 0 Z " fill="#547580" transform="translate(27.5625,25.8125)"/>
<path d="M0 0 C5.42857143 -0.36190476 5.42857143 -0.36190476 7.875 1.1875 C9.34781139 3.56036279 9.22223194 5.25913944 9 8 C7.68 8.33 6.36 8.66 5 9 C3.02 6.69 1.04 4.38 -1 2 C-0.67 1.34 -0.34 0.68 0 0 Z " fill="#F0BB16" transform="translate(18,0)"/>
<path d="M0 0 C2.96404505 2.80804268 5.44499019 5.18315774 7 9 C4.69 9 2.38 9 0 9 C0 6.03 0 3.06 0 0 Z " fill="#F8C090" transform="translate(0,18)"/>
<path d="M0 0 C3.96 0.33 7.92 0.66 12 1 C12 1.33 12 1.66 12 2 C8.7 2.66 5.4 3.32 2 4 C2 4.66 2 5.32 2 6 C1.34 5.67 0.68 5.34 0 5 C0 3.35 0 1.7 0 0 Z " fill="#9FADB4" transform="translate(13,39)"/>
</svg>
